# xmcd CD database file
# Copyright (C) 1993-1998 Ti Kan
#
# Track frame offsets:
#	182
#	14597
#	27637
#	42340
#	53412
#	65977
#	76942
#	88892
#	100910
#	113092
#	124492
#	139552
#	151997
#	165525
#	178420
#	192395
#	205762
#	219230
#	231982
#	251877
#
# Disc length: 3569 seconds
#
# Revision: 1
# Processed by: cddbd v1.4b41PL1 Copyright (c) Steve Scherf et al.
# Submitted via: CDValet v3.31 - Copyright (c) 1997 Greg Leichner
#
DISCID=250def14
DTITLE=Various Artist - 60 Great Blues Recordings - Disc 3
DYEAR=1900
DGENRE=
TTITLE0=Dust My Blues/Elmore James
TTITLE1=The Thrill Is Gone/Roy Hawkins
TTITLE2=Past Day/B B King
TTITLE3=Gene Jumps The Blues /Gene Phillips
TTITLE4=Everynight About Midnight/Saunders King
TTITLE5=Tennessee Woman/Fenton Robinson
TTITLE6=Applejack Boogie/Pinetop Slim
TTITLE7=Going Down Slow/Joe Hill Louis
TTITLE8=Hard Hearted Woman/Walter 'Mumbles' Horton
TTITLE9=Big Chested Mama/Sylvester Cotton
TTITLE10=Drafting Blues/Floyd Dxon
TTITLE11=Sho' Nuff I Do/Elmore James
TTITLE12=Love Me Baby/Bobby Bland and Junior Parker
TTITLE13=I May Be Crazy Baby But (I Ain't No Fool)/Geechie Smit
TTITLE13=h
TTITLE14=Cold Blooded Woman/Great Gates
TTITLE15=Jake Head Boogie/Lightning Hopkins
TTITLE16=Black Gal/Walter 'Mumbles' Horton
TTITLE17=I'm So Worried/Saunders King
TTITLE18=I Cried/Johnny Ace
TTITLE19=My Own Fault Darlin'/B B King
EXTD=Input by Bill (whall@netcomuk.co.uk)
EXTT0=
EXTT1=
EXTT2=
EXTT3=
EXTT4=
EXTT5=
EXTT6=
EXTT7=
EXTT8=
EXTT9=
EXTT10=
EXTT11=
EXTT12=
EXTT13=
EXTT14=
EXTT15=
EXTT16=
EXTT17=
EXTT18=
EXTT19=
PLAYORDER=
